<svg width="21" height="18" viewBox="0 0 21 18" fill="none" xmlns="http://www.w3.org/2000/svg">
<path d="M10.288 17.4357H11.4779C11.4779 17.4357 11.8401 17.3583 12.0298 17.0745C12.2023 16.7906 12.185 16.3003 12.185 16.3003C12.185 16.3003 12.1678 13.9004 12.9093 13.5391C13.6509 13.2036 14.5822 15.8616 15.5824 16.868C16.3413 17.6422 16.9104 17.4874 16.9104 17.4874L19.5835 17.4357C19.5835 17.4357 20.9804 17.3067 20.3251 15.6552C20.2733 15.5261 19.9284 14.4423 18.3418 12.2488C16.6689 9.92627 16.8931 10.2876 18.9109 6.28766C20.1353 3.86192 20.6182 2.36518 20.463 1.72004C20.3251 1.12651 19.4283 1.28134 19.4283 1.28134L16.4102 1.30715C16.4102 1.30715 16.1861 1.25554 16.0308 1.41037C15.8584 1.5652 15.7549 1.90068 15.7549 1.90068C15.7549 1.90068 15.2893 3.7845 14.6512 5.38446C13.306 8.76501 12.7714 8.94565 12.5472 8.73921C12.047 8.2489 12.1678 6.77797 12.1678 5.71993C12.1678 2.4426 12.5127 1.07489 11.5297 0.713614C11.202 0.584585 10.9606 0.507168 10.1155 0.507168C9.04627 0.481363 8.13224 0.507168 7.63211 0.894255C7.2872 1.12651 7.01126 1.69423 7.18372 1.72004C7.37343 1.77165 7.82182 1.90068 8.06326 2.39099C8.37369 3.01033 8.35644 4.40384 8.35644 4.40384C8.35644 4.40384 8.54614 8.2747 7.94254 8.76501C7.54588 9.10049 6.99402 8.40373 5.78681 5.33285C5.1832 3.75869 4.71757 2.02971 4.71757 2.02971C4.71757 2.02971 4.63134 1.69423 4.47612 1.5394C4.28642 1.33295 4.01049 1.25554 4.01049 1.25554L1.14768 1.28134C1.14768 1.28134 0.716531 1.30715 0.561319 1.5652C0.423352 1.82326 0.561319 2.33938 0.561319 2.33938C0.561319 2.33938 2.78603 10.1327 5.32117 14.0552C7.64936 17.668 10.288 17.4357 10.288 17.4357Z" fill="#F5EFDB"/>
</svg>
