<svg width="24" height="24" viewBox="0 0 24 24" fill="none" xmlns="http://www.w3.org/2000/svg">
<path fill-rule="evenodd" clip-rule="evenodd" d="M2.51416 23.0174L3.92663 17.4375C3.16607 15.9104 2.73146 14.207 2.73146 12.4449C2.73146 6.74756 7.02321 2.10742 12.2928 2.10742C17.5624 2.10742 21.8542 6.74756 21.8542 12.4449C21.8542 18.1423 17.5624 22.7825 12.2928 22.7825C10.7174 22.7825 9.14191 22.3713 7.72944 21.549L2.51416 23.0174ZM8.00107 19.3758L8.32703 19.6107C9.52219 20.3743 10.8803 20.7855 12.2928 20.7855C16.5302 20.7855 20.0071 17.0264 20.0071 12.3862C20.0071 7.80481 16.5302 4.04571 12.2928 4.04571C8.00107 4.04571 4.52422 7.80481 4.52422 12.3862C4.52422 13.9133 4.9045 15.4405 5.66506 16.7327L5.88236 17.0851L5.06747 20.2568L8.00107 19.3758Z" fill="#F5EFDB"/>
<path d="M15.6359 13.7565C15.2769 13.5356 14.8153 13.2596 14.3537 13.4804C14.046 13.5908 13.7896 14.1982 13.5844 14.4742C13.4818 14.6215 13.3451 14.6583 13.1741 14.5847C11.892 14.0325 10.9688 13.0939 10.2508 11.8793C10.1482 11.6584 10.1482 11.548 10.3021 11.3271C10.5072 11.0511 10.7636 10.775 10.8149 10.4437C10.8662 10.0572 10.7124 9.61555 10.6098 9.33948C10.4046 8.89778 10.1995 8.34566 9.84048 8.12481C9.48148 7.90396 9.01989 8.01439 8.71217 8.29045C8.19931 8.73215 7.94287 9.50512 7.94287 10.2229C7.94287 10.4437 7.95997 10.6462 7.99416 10.8302C8.09673 11.3271 8.30188 11.7688 8.55831 12.2105C8.72927 12.505 8.91732 12.8179 9.12247 13.1491C9.7892 14.143 10.6611 14.9712 11.5842 15.6337C12.0971 15.9098 12.61 16.241 13.1741 16.4067C13.7383 16.6275 14.3024 16.8484 14.9692 16.738C15.6359 16.5723 16.3026 16.1306 16.6103 15.4129C16.6616 15.192 16.7129 14.9712 16.6616 14.7503C16.5591 14.2534 15.9949 13.9773 15.6359 13.7565Z" fill="#F5EFDB"/>
</svg>
